<svg xmlns="http://www.w3.org/2000/svg" width="3000" height="3840"><path d="M1385,1944L1807,1912L1445,1725Z" fill="#e5b1ab" stroke="#e5b1ab" stroke-width="1.51"/><path d="M1385,1944L1797,2224L1807,1912Z" fill="#e4aba5" stroke="#e4aba5" stroke-width="1.51"/><path d="M1634,2543L1766,2415L1797,2224Z" fill="#e3a39c" stroke="#e3a39c" stroke-width="1.51"/><path d="M974,1797L1137,2036L1385,1944Z" fill="#e7b7b1" stroke="#e7b7b1" stroke-width="1.51"/><path d="M1634,2543L1797,2224L1385,1944Z" fill="#e3a9a2" stroke="#e3a9a2" stroke-width="1.51"/><path d="M1807,1912L1949,1389L1445,1725Z" fill="#e5afa9" stroke="#e5afa9" stroke-width="1.51"/><path d="M2289,1797L1949,1389L1807,1912Z" fill="#e4a8a2" stroke="#e4a8a2" stroke-width="1.51"/><path d="M2289,1797L1807,1912L2258,2319Z" fill="#e2a19b" stroke="#e2a19b" stroke-width="1.51"/><path d="M1445,1725L974,1797L1385,1944Z" fill="#e6b6b1" stroke="#e6b6b1" stroke-width="1.51"/><path d="M1065,1507L974,1797L1445,1725Z" fill="#e8bab5" stroke="#e8bab5" stroke-width="1.51"/><path d="M1383,1216L1065,1507L1445,1725Z" fill="#e8bab5" stroke="#e8bab5" stroke-width="1.51"/><path d="M1267,2546L1634,2543L1385,1944Z" fill="#e4aba4" stroke="#e4aba4" stroke-width="1.51"/><path d="M1949,1389L1383,1216L1445,1725Z" fill="#e7b6b0" stroke="#e7b6b0" stroke-width="1.51"/><path d="M2258,2319L1807,1912L1797,2224Z" fill="#e2a29b" stroke="#e2a29b" stroke-width="1.51"/><path d="M1137,2036L1267,2546L1385,1944Z" fill="#e6b0aa" stroke="#e6b0aa" stroke-width="1.51"/><path d="M761,2676L1267,2546L1137,2036Z" fill="#e7afaa" stroke="#e7afaa" stroke-width="1.51"/><path d="M1949,1389L1811,1018L1383,1216Z" fill="#e8b6b1" stroke="#e8b6b1" stroke-width="1.51"/><path d="M2289,1797L2076,1303L1949,1389Z" fill="#e5a9a3" stroke="#e5a9a3" stroke-width="1.51"/><path d="M1766,2415L2258,2319L1797,2224Z" fill="#e29f99" stroke="#e29f99" stroke-width="1.51"/><path d="M1981,2926L2258,2319L1766,2415Z" fill="#e19993" stroke="#e19993" stroke-width="1.51"/><path d="M974,1797L623,2017L1137,2036Z" fill="#e9bbb6" stroke="#e9bbb6" stroke-width="1.51"/><path d="M1065,1507L727,1766L974,1797Z" fill="#eabfb9" stroke="#eabfb9" stroke-width="1.51"/><path d="M839,1193L727,1766L1065,1507Z" fill="#ebc2bd" stroke="#ebc2bd" stroke-width="1.51"/><path d="M2076,1303L1811,1018L1949,1389Z" fill="#e7b0ab" stroke="#e7b0ab" stroke-width="1.51"/><path d="M2258,2319L2458,2153L2289,1797Z" fill="#e19a94" stroke="#e19a94" stroke-width="1.51"/><path d="M2550,1182L2245,968L2076,1303Z" fill="#e7a9a4" stroke="#e7a9a4" stroke-width="1.51"/><path d="M1383,1216L1021,1042L1065,1507Z" fill="#ebc0bb" stroke="#ebc0bb" stroke-width="1.51"/><path d="M1811,1018L1329,972L1383,1216Z" fill="#e9bdb8" stroke="#e9bdb8" stroke-width="1.51"/><path d="M1634,2543L1686,2844L1766,2415Z" fill="#e2a099" stroke="#e2a099" stroke-width="1.51"/><path d="M2569,2425L2655,2048L2458,2153Z" fill="#e0928c" stroke="#e0928c" stroke-width="1.51"/><path d="M1267,2546L1686,2844L1634,2543Z" fill="#e2a39d" stroke="#e2a39d" stroke-width="1.51"/><path d="M727,1766L623,2017L974,1797Z" fill="#eabfba" stroke="#eabfba" stroke-width="1.51"/><path d="M1329,972L1021,1042L1383,1216Z" fill="#ebc1bd" stroke="#ebc1bd" stroke-width="1.51"/><path d="M164,1741L489,2200L623,2017Z" fill="#ecc3be" stroke="#ecc3be" stroke-width="1.51"/><path d="M1021,1042L839,1193L1065,1507Z" fill="#ecc4bf" stroke="#ecc4bf" stroke-width="1.51"/><path d="M2569,2425L2458,2153L2258,2319Z" fill="#e0948e" stroke="#e0948e" stroke-width="1.51"/><path d="M2458,2153L2655,2048L2289,1797Z" fill="#e19892" stroke="#e19892" stroke-width="1.51"/><path d="M1686,2844L1981,2926L1766,2415Z" fill="#e19a94" stroke="#e19a94" stroke-width="1.51"/><path d="M2327,3022L2569,2425L2258,2319Z" fill="#df8f89" stroke="#df8f89" stroke-width="1.51"/><path d="M2076,1303L2245,968L1811,1018Z" fill="#e7b0aa" stroke="#e7b0aa" stroke-width="1.51"/><path d="M1811,1018L1713,683L1329,972Z" fill="#eabdb7" stroke="#eabdb7" stroke-width="1.51"/><path d="M2550,1182L2076,1303L2289,1797Z" fill="#e5a59f" stroke="#e5a59f" stroke-width="1.51"/><path d="M2655,2048L2736,1864L2289,1797Z" fill="#e09792" stroke="#e09792" stroke-width="1.51"/><path d="M2989,1580L2736,1864L3376,1870Z" fill="#df8e89" stroke="#df8e89" stroke-width="1.51"/><path d="M623,2017L761,2676L1137,2036Z" fill="#e9b7b2" stroke="#e9b7b2" stroke-width="1.51"/><path d="M1267,2546L1103,3062L1686,2844Z" fill="#e3a39d" stroke="#e3a39d" stroke-width="1.51"/><path d="M164,1741L623,2017L727,1766Z" fill="#ecc4bf" stroke="#ecc4bf" stroke-width="1.51"/><path d="M489,2200L761,2676L623,2017Z" fill="#eabab5" stroke="#eabab5" stroke-width="1.51"/><path d="M1686,2844L1918,3218L1981,2926Z" fill="#e0948e" stroke="#e0948e" stroke-width="1.51"/><path d="M2736,1864L2550,1182L2289,1797Z" fill="#e39d97" stroke="#e39d97" stroke-width="1.51"/><path d="M2245,968L1713,683L1811,1018Z" fill="#e9b6b0" stroke="#e9b6b0" stroke-width="1.51"/><path d="M1329,972L913,886L1021,1042Z" fill="#edc6c1" stroke="#edc6c1" stroke-width="1.51"/><path d="M839,1193L356,1332L727,1766Z" fill="#edc7c3" stroke="#edc7c3" stroke-width="1.51"/><path d="M1021,1042L913,886L839,1193Z" fill="#edc8c3" stroke="#edc8c3" stroke-width="1.51"/><path d="M1216,587L913,886L1329,972Z" fill="#edc7c2" stroke="#edc7c2" stroke-width="1.51"/><path d="M761,2676L849,2874L1267,2546Z" fill="#e7aca7" stroke="#e7aca7" stroke-width="1.51"/><path d="M479,2757L849,2874L761,2676Z" fill="#e8afaa" stroke="#e8afaa" stroke-width="1.51"/><path d="M849,2874L1103,3062L1267,2546Z" fill="#e5a8a2" stroke="#e5a8a2" stroke-width="1.51"/><path d="M1713,683L1216,587L1329,972Z" fill="#ebc3be" stroke="#ebc3be" stroke-width="1.51"/><path d="M327,988L356,1332L839,1193Z" fill="#f0cdca" stroke="#f0cdca" stroke-width="1.51"/><path d="M327,988L839,1193L913,886Z" fill="#efccc8" stroke="#efccc8" stroke-width="1.51"/><path d="M1981,2926L2327,3022L2258,2319Z" fill="#df918b" stroke="#df918b" stroke-width="1.51"/><path d="M2206,3116L2327,3022L1981,2926Z" fill="#de8c86" stroke="#de8c86" stroke-width="1.51"/><path d="M1606,3276L1918,3218L1686,2844Z" fill="#e0958f" stroke="#e0958f" stroke-width="1.51"/><path d="M1918,3218L2206,3116L1981,2926Z" fill="#df8e88" stroke="#df8e88" stroke-width="1.51"/><path d="M2245,968L2347,729L1713,683Z" fill="#eab2ad" stroke="#eab2ad" stroke-width="1.51"/><path d="M1713,683L1326,385L1216,587Z" fill="#ecc6c1" stroke="#ecc6c1" stroke-width="1.51"/><path d="M2618,836L2347,729L2245,968Z" fill="#e8aba5" stroke="#e8aba5" stroke-width="1.51"/><path d="M1103,3062L1606,3276L1686,2844Z" fill="#e29c96" stroke="#e29c96" stroke-width="1.51"/><path d="M560,3144L1088,3397L1103,3062Z" fill="#e6a39e" stroke="#e6a39e" stroke-width="1.51"/><path d="M489,2200L479,2757L761,2676Z" fill="#eab6b1" stroke="#eab6b1" stroke-width="1.51"/><path d="M159,2667L479,2757L489,2200Z" fill="#ecb9b5" stroke="#ecb9b5" stroke-width="1.51"/><path d="M2550,1182L2618,836L2245,968Z" fill="#e7a7a1" stroke="#e7a7a1" stroke-width="1.51"/><path d="M2736,1864L2989,1580L2550,1182Z" fill="#e29892" stroke="#e29892" stroke-width="1.51"/><path d="M3062,2256L2736,1864L2655,2048Z" fill="#df8e89" stroke="#df8e89" stroke-width="1.51"/><path d="M3062,2256L2655,2048L2569,2425Z" fill="#df8c87" stroke="#df8c87" stroke-width="1.51"/><path d="M356,1332L164,1741L727,1766Z" fill="#eec9c4" stroke="#eec9c4" stroke-width="1.51"/><path d="M3023,1250L2618,836L2550,1182Z" fill="#e59f99" stroke="#e59f99" stroke-width="1.51"/><path d="M2327,3022L2660,2900L2569,2425Z" fill="#de8883" stroke="#de8883" stroke-width="1.51"/><path d="M2848,3015L2660,2900L2646,3212Z" fill="#db7e79" stroke="#db7e79" stroke-width="1.51"/><path d="M356,1332L139,1637L164,1741Z" fill="#efcdc9" stroke="#efcdc9" stroke-width="1.51"/><path d="M2660,2900L2848,2685L2569,2425Z" fill="#dd8681" stroke="#dd8681" stroke-width="1.51"/><path d="M2848,2685L3062,2256L2569,2425Z" fill="#dd8782" stroke="#dd8782" stroke-width="1.51"/><path d="M567,591L327,988L913,886Z" fill="#f0d1cd" stroke="#f0d1cd" stroke-width="1.51"/><path d="M1567,56L1326,385L1713,683Z" fill="#edc6c2" stroke="#edc6c2" stroke-width="1.51"/><path d="M356,1332L45,1291L139,1637Z" fill="#f0d0cc" stroke="#f0d0cc" stroke-width="1.51"/><path d="M567,591L913,886L1216,587Z" fill="#f0cdc9" stroke="#f0cdc9" stroke-width="1.51"/><path d="M2989,1580L3023,1250L2550,1182Z" fill="#e49993" stroke="#e49993" stroke-width="1.51"/><path d="M3258,1350L3023,1250L2989,1580Z" fill="#e2928d" stroke="#e2928d" stroke-width="1.51"/><path d="M1103,3062L1088,3397L1606,3276Z" fill="#e39c96" stroke="#e39c96" stroke-width="1.51"/><path d="M1606,3276L1680,3550L1918,3218Z" fill="#e0908b" stroke="#e0908b" stroke-width="1.51"/><path d="M560,3144L1103,3062L849,2874Z" fill="#e7a8a3" stroke="#e7a8a3" stroke-width="1.51"/><path d="M479,2757L560,3144L849,2874Z" fill="#e8aea9" stroke="#e8aea9" stroke-width="1.51"/><path d="M-16,3015L560,3144L479,2757Z" fill="#ebb2ad" stroke="#ebb2ad" stroke-width="1.51"/><path d="M103,2640L489,2200L-139,2237Z" fill="#edc1bc" stroke="#edc1bc" stroke-width="1.51"/><path d="M103,2640L159,2667L489,2200Z" fill="#ecbdb8" stroke="#ecbdb8" stroke-width="1.51"/><path d="M1175,205L567,591L1216,587Z" fill="#f0cfcb" stroke="#f0cfcb" stroke-width="1.51"/><path d="M-139,2237L489,2200L164,1741Z" fill="#edc7c2" stroke="#edc7c2" stroke-width="1.51"/><path d="M151,996L45,1291L356,1332Z" fill="#f1d3d0" stroke="#f1d3d0" stroke-width="1.51"/><path d="M151,996L356,1332L327,988Z" fill="#f1d3cf" stroke="#f1d3cf" stroke-width="1.51"/><path d="M1290,3611L1680,3550L1606,3276Z" fill="#e0938e" stroke="#e0938e" stroke-width="1.51"/><path d="M1918,3218L2453,3540L2206,3116Z" fill="#dd8681" stroke="#dd8681" stroke-width="1.51"/><path d="M2646,3212L2660,2900L2327,3022Z" fill="#dc827d" stroke="#dc827d" stroke-width="1.51"/><path d="M-16,3015L332,3380L560,3144Z" fill="#ebafaa" stroke="#ebafaa" stroke-width="1.51"/><path d="M-139,2237L164,1741L-301,1967Z" fill="#efcdc9" stroke="#efcdc9" stroke-width="1.51"/><path d="M2660,2900L2848,3015L2848,2685Z" fill="#dc807b" stroke="#dc807b" stroke-width="1.51"/><path d="M2848,2685L3373,2301L3062,2256Z" fill="#dc817c" stroke="#dc817c" stroke-width="1.51"/><path d="M2646,3212L2327,3022L2206,3116Z" fill="#dd8580" stroke="#dd8580" stroke-width="1.51"/><path d="M88,713L151,996L327,988Z" fill="#f3d7d4" stroke="#f3d7d4" stroke-width="1.51"/><path d="M2453,3540L2646,3212L2206,3116Z" fill="#dc807b" stroke="#dc807b" stroke-width="1.51"/><path d="M1326,385L1175,205L1216,587Z" fill="#efcbc7" stroke="#efcbc7" stroke-width="1.51"/><path d="M1567,56L1175,205L1326,385Z" fill="#eeccc8" stroke="#eeccc8" stroke-width="1.51"/><path d="M2393,305L1713,683L2347,729Z" fill="#ebb4af" stroke="#ebb4af" stroke-width="1.51"/><path d="M3096,519L2688,437L2618,836Z" fill="#e8a4a0" stroke="#e8a4a0" stroke-width="1.51"/><path d="M3376,1870L3258,1350L2989,1580Z" fill="#e08c87" stroke="#e08c87" stroke-width="1.51"/><path d="M1088,3397L1290,3611L1606,3276Z" fill="#e29792" stroke="#e29792" stroke-width="1.51"/><path d="M848,4043L1290,3611L1088,3397Z" fill="#e39791" stroke="#e39791" stroke-width="1.51"/><path d="M-301,1967L164,1741L-382,1764Z" fill="#f0d1cd" stroke="#f0d1cd" stroke-width="1.51"/><path d="M2688,437L2393,305L2347,729Z" fill="#eaaea9" stroke="#eaaea9" stroke-width="1.51"/><path d="M2688,437L2347,729L2618,836Z" fill="#e9aaa4" stroke="#e9aaa4" stroke-width="1.51"/><path d="M3062,2256L3376,1870L2736,1864Z" fill="#de8a85" stroke="#de8a85" stroke-width="1.51"/><path d="M3373,2301L3376,1870L3062,2256Z" fill="#dc827e" stroke="#dc827e" stroke-width="1.51"/><path d="M567,591L435,490L327,988Z" fill="#f3d6d2" stroke="#f3d6d2" stroke-width="1.51"/><path d="M715,96L435,490L567,591Z" fill="#f3d8d4" stroke="#f3d8d4" stroke-width="1.51"/><path d="M3226,1033L2618,836L3023,1250Z" fill="#e59a95" stroke="#e59a95" stroke-width="1.51"/><path d="M1743,31L1567,56L1713,683Z" fill="#edc5c0" stroke="#edc5c0" stroke-width="1.51"/><path d="M3549,2502L3373,2301L2848,2685Z" fill="#db7b77" stroke="#db7b77" stroke-width="1.51"/><path d="M3258,1350L3226,1033L3023,1250Z" fill="#e3938e" stroke="#e3938e" stroke-width="1.51"/><path d="M3397,735L3226,1033L3569,829Z" fill="#e4928d" stroke="#e4928d" stroke-width="1.51"/><path d="M1680,3550L1827,3710L1918,3218Z" fill="#de8b86" stroke="#de8b86" stroke-width="1.51"/><path d="M1699,3944L1827,3710L1680,3550Z" fill="#de8984" stroke="#de8984" stroke-width="1.51"/><path d="M2393,305L1743,31L1713,683Z" fill="#ecbcb8" stroke="#ecbcb8" stroke-width="1.51"/><path d="M1827,3710L2453,3540L1918,3218Z" fill="#dd8580" stroke="#dd8580" stroke-width="1.51"/><path d="M2646,3212L2957,3313L2848,3015Z" fill="#da7975" stroke="#da7975" stroke-width="1.51"/><path d="M45,1291L-229,1431L139,1637Z" fill="#f1d3d0" stroke="#f1d3d0" stroke-width="1.51"/><path d="M-240,1019L-229,1431L45,1291Z" fill="#f3d8d5" stroke="#f3d8d5" stroke-width="1.51"/><path d="M-240,1019L45,1291L151,996Z" fill="#f3d8d5" stroke="#f3d8d5" stroke-width="1.51"/><path d="M-382,1764L164,1741L139,1637Z" fill="#f0d0cc" stroke="#f0d0cc" stroke-width="1.51"/><path d="M435,490L88,713L327,988Z" fill="#f3d8d5" stroke="#f3d8d5" stroke-width="1.51"/><path d="M1743,31L1610,-274L1567,56Z" fill="#efcac5" stroke="#efcac5" stroke-width="1.51"/><path d="M2393,305L1851,-45L1743,31Z" fill="#eebfba" stroke="#eebfba" stroke-width="1.51"/><path d="M2121,-215L1851,-45L2393,305Z" fill="#eebdb9" stroke="#eebdb9" stroke-width="1.51"/><path d="M560,3144L545,3693L1088,3397Z" fill="#e7a39d" stroke="#e7a39d" stroke-width="1.51"/><path d="M-16,3015L479,2757L159,2667Z" fill="#ecb7b3" stroke="#ecb7b3" stroke-width="1.51"/><path d="M-16,3015L159,2667L103,2640Z" fill="#edbab6" stroke="#edbab6" stroke-width="1.51"/><path d="M-16,3015L103,2640L-489,2869Z" fill="#efbdb9" stroke="#efbdb9" stroke-width="1.51"/><path d="M-489,2869L103,2640L-139,2237Z" fill="#efc3bf" stroke="#efc3bf" stroke-width="1.51"/><path d="M2453,3540L2957,3313L2646,3212Z" fill="#db7974" stroke="#db7974" stroke-width="1.51"/><path d="M3521,2968L3549,2502L2848,2685Z" fill="#da7572" stroke="#da7572" stroke-width="1.51"/><path d="M-229,1431L-382,1764L139,1637Z" fill="#f2d4d0" stroke="#f2d4d0" stroke-width="1.51"/><path d="M-247,3175L-22,3208L-16,3015Z" fill="#eeb7b3" stroke="#eeb7b3" stroke-width="1.51"/><path d="M-452,682L-382,1764L-229,1431Z" fill="#f4dcd9" stroke="#f4dcd9" stroke-width="1.51"/><path d="M1175,205L715,96L567,591Z" fill="#f2d5d1" stroke="#f2d5d1" stroke-width="1.51"/><path d="M435,490L-29,344L88,713Z" fill="#f5ddda" stroke="#f5ddda" stroke-width="1.51"/><path d="M750,-191L715,96L1175,205Z" fill="#f3d7d4" stroke="#f3d7d4" stroke-width="1.51"/><path d="M1229,-356L1175,205L1567,56Z" fill="#f1d0cc" stroke="#f1d0cc" stroke-width="1.51"/><path d="M88,713L-240,1019L151,996Z" fill="#f4dbd8" stroke="#f4dbd8" stroke-width="1.51"/><path d="M-452,682L-240,1019L88,713Z" fill="#f6e0dd" stroke="#f6e0dd" stroke-width="1.51"/><path d="M2688,437L2506,50L2393,305Z" fill="#ecb0ab" stroke="#ecb0ab" stroke-width="1.51"/><path d="M3226,1033L3096,519L2618,836Z" fill="#e79d98" stroke="#e79d98" stroke-width="1.51"/><path d="M3051,-53L2506,50L2688,437Z" fill="#ebaca8" stroke="#ebaca8" stroke-width="1.51"/><path d="M3373,2301L3549,2502L3376,1870Z" fill="#db7c78" stroke="#db7c78" stroke-width="1.51"/><path d="M3569,829L3226,1033L3258,1350Z" fill="#e3908c" stroke="#e3908c" stroke-width="1.51"/><path d="M3521,2968L2848,2685L2848,3015Z" fill="#da7874" stroke="#da7874" stroke-width="1.51"/><path d="M2260,4025L2622,3778L2453,3540Z" fill="#da7672" stroke="#da7672" stroke-width="1.51"/><path d="M2453,3540L2622,3778L2957,3313Z" fill="#da7571" stroke="#da7571" stroke-width="1.51"/><path d="M1290,3611L1699,3944L1680,3550Z" fill="#df8e88" stroke="#df8e88" stroke-width="1.51"/><path d="M1476,4119L1699,3944L1290,3611Z" fill="#de8b86" stroke="#de8b86" stroke-width="1.51"/><path d="M-532,2318L-139,2237L-301,1967Z" fill="#f1cdc9" stroke="#f1cdc9" stroke-width="1.51"/><path d="M-16,3015L-22,3208L332,3380Z" fill="#ecb2ae" stroke="#ecb2ae" stroke-width="1.51"/><path d="M231,3513L545,3693L332,3380Z" fill="#e9a7a2" stroke="#e9a7a2" stroke-width="1.51"/><path d="M332,3380L545,3693L560,3144Z" fill="#e9a7a2" stroke="#e9a7a2" stroke-width="1.51"/><path d="M-22,3208L231,3513L332,3380Z" fill="#ebada9" stroke="#ebada9" stroke-width="1.51"/><path d="M3226,1033L3397,735L3096,519Z" fill="#e69792" stroke="#e69792" stroke-width="1.51"/><path d="M3096,519L3149,92L2688,437Z" fill="#e9a49f" stroke="#e9a49f" stroke-width="1.51"/><path d="M3569,829L3258,1350L3376,1870Z" fill="#e18b86" stroke="#e18b86" stroke-width="1.51"/><path d="M2957,3313L3521,2968L2848,3015Z" fill="#d97370" stroke="#d97370" stroke-width="1.51"/><path d="M2260,4025L2453,3540L1827,3710Z" fill="#db7d79" stroke="#db7d79" stroke-width="1.51"/><path d="M1851,-45L1610,-274L1743,31Z" fill="#efc8c4" stroke="#efc8c4" stroke-width="1.51"/><path d="M1977,-529L1610,-274L1851,-45Z" fill="#f0c9c5" stroke="#f0c9c5" stroke-width="1.51"/><path d="M2506,50L2121,-215L2393,305Z" fill="#edb7b3" stroke="#edb7b3" stroke-width="1.51"/><path d="M-382,1764L-532,2318L-301,1967Z" fill="#f2d2ce" stroke="#f2d2ce" stroke-width="1.51"/><path d="M-452,682L-532,2318L-382,1764Z" fill="#f3d9d7" stroke="#f3d9d7" stroke-width="1.51"/><path d="M2622,3778L3095,3494L2957,3313Z" fill="#d8706d" stroke="#d8706d" stroke-width="1.51"/><path d="M750,-191L342,60L715,96Z" fill="#f5ddda" stroke="#f5ddda" stroke-width="1.51"/><path d="M715,96L342,60L435,490Z" fill="#f4dcd9" stroke="#f4dcd9" stroke-width="1.51"/><path d="M3486,3261L3521,2968L2957,3313Z" fill="#d76c69" stroke="#d76c69" stroke-width="1.51"/><path d="M342,60L-29,344L435,490Z" fill="#f5e0dc" stroke="#f5e0dc" stroke-width="1.51"/><path d="M1229,-356L750,-191L1175,205Z" fill="#f2d6d3" stroke="#f2d6d3" stroke-width="1.51"/><path d="M1699,3944L2260,4025L1827,3710Z" fill="#dc817c" stroke="#dc817c" stroke-width="1.51"/><path d="M1036,4223L1476,4119L1290,3611Z" fill="#e08e89" stroke="#e08e89" stroke-width="1.51"/><path d="M3539,17L3149,92L3096,519Z" fill="#e99f9a" stroke="#e99f9a" stroke-width="1.51"/><path d="M3549,2502L3569,829L3376,1870Z" fill="#dd837f" stroke="#dd837f" stroke-width="1.51"/><path d="M2032,4427L2260,4025L1699,3944Z" fill="#db7a76" stroke="#db7a76" stroke-width="1.51"/><path d="M2622,3778L3237,3654L3095,3494Z" fill="#d76b69" stroke="#d76b69" stroke-width="1.51"/><path d="M-22,3208L-198,3747L231,3513Z" fill="#ecaeaa" stroke="#ecaeaa" stroke-width="1.51"/><path d="M-489,2869L-247,3175L-16,3015Z" fill="#efbcb7" stroke="#efbcb7" stroke-width="1.51"/><path d="M1618,-585L1229,-356L1610,-274Z" fill="#f1d3cf" stroke="#f1d3cf" stroke-width="1.51"/><path d="M1610,-274L1229,-356L1567,56Z" fill="#f0d0cc" stroke="#f0d0cc" stroke-width="1.51"/><path d="M545,3693L848,4043L1088,3397Z" fill="#e59b96" stroke="#e59b96" stroke-width="1.51"/><path d="M443,4026L848,4043L545,3693Z" fill="#e69b96" stroke="#e69b96" stroke-width="1.51"/><path d="M443,4026L545,3693L231,3513Z" fill="#e9a29d" stroke="#e9a29d" stroke-width="1.51"/><path d="M-532,2318L-489,2869L-139,2237Z" fill="#f1c9c5" stroke="#f1c9c5" stroke-width="1.51"/><path d="M3237,3654L3486,3261L3095,3494Z" fill="#d66765" stroke="#d66765" stroke-width="1.51"/><path d="M3095,3494L3486,3261L2957,3313Z" fill="#d76c6a" stroke="#d76c6a" stroke-width="1.51"/><path d="M-29,344L-452,682L88,713Z" fill="#f7e2df" stroke="#f7e2df" stroke-width="1.51"/><path d="M-240,1019L-452,682L-229,1431Z" fill="#f5dfdc" stroke="#f5dfdc" stroke-width="1.51"/><path d="M2506,50L2706,-346L2121,-215Z" fill="#efb8b3" stroke="#efb8b3" stroke-width="1.51"/><path d="M3539,17L3096,519L3397,735Z" fill="#e79a95" stroke="#e79a95" stroke-width="1.51"/><path d="M848,4043L1036,4223L1290,3611Z" fill="#e2928d" stroke="#e2928d" stroke-width="1.51"/><path d="M2447,4238L2679,4058L2260,4025Z" fill="#d76f6d" stroke="#d76f6d" stroke-width="1.51"/><path d="M630,4363L1036,4223L848,4043Z" fill="#e3918d" stroke="#e3918d" stroke-width="1.51"/><path d="M3022,4122L3237,3654L2622,3778Z" fill="#d66866" stroke="#d66866" stroke-width="1.51"/><path d="M3149,92L3051,-53L2688,437Z" fill="#eba7a2" stroke="#eba7a2" stroke-width="1.51"/><path d="M2260,4025L2679,4058L2622,3778Z" fill="#d8706e" stroke="#d8706e" stroke-width="1.51"/><path d="M2447,4238L2260,4025L2032,4427Z" fill="#d97270" stroke="#d97270" stroke-width="1.51"/><path d="M-93,4057L443,4026L231,3513Z" fill="#eaa49f" stroke="#eaa49f" stroke-width="1.51"/><path d="M2121,-215L1977,-529L1851,-45Z" fill="#f0c5c1" stroke="#f0c5c1" stroke-width="1.51"/><path d="M2360,-662L1977,-529L2121,-215Z" fill="#f1c3bf" stroke="#f1c3bf" stroke-width="1.51"/><path d="M408,-603L361,-230L750,-191Z" fill="#f7e3e1" stroke="#f7e3e1" stroke-width="1.51"/><path d="M750,-191L361,-230L342,60Z" fill="#f6e1de" stroke="#f6e1de" stroke-width="1.51"/><path d="M342,60L-14,-170L-29,344Z" fill="#f8e5e3" stroke="#f8e5e3" stroke-width="1.51"/><path d="M-29,344L-376,358L-452,682Z" fill="#f8e7e5" stroke="#f8e7e5" stroke-width="1.51"/><path d="M1015,-616L750,-191L1229,-356Z" fill="#f4dbd8" stroke="#f4dbd8" stroke-width="1.51"/><path d="M1977,-529L1618,-585L1610,-274Z" fill="#f1ceca" stroke="#f1ceca" stroke-width="1.51"/><path d="M-14,-170L-376,358L-29,344Z" fill="#f9e8e6" stroke="#f9e8e6" stroke-width="1.51"/><path d="M3051,-53L2706,-346L2506,50Z" fill="#edb0ab" stroke="#edb0ab" stroke-width="1.51"/><path d="M2679,4058L3022,4122L2622,3778Z" fill="#d76967" stroke="#d76967" stroke-width="1.51"/><path d="M1639,4394L1699,3944L1476,4119Z" fill="#dd847f" stroke="#dd847f" stroke-width="1.51"/><path d="M1109,4454L1639,4394L1476,4119Z" fill="#dd8481" stroke="#dd8481" stroke-width="1.51"/><path d="M-247,3175L-367,3521L-22,3208Z" fill="#efb6b2" stroke="#efb6b2" stroke-width="1.51"/><path d="M-489,2869L-367,3521L-247,3175Z" fill="#f0bbb7" stroke="#f0bbb7" stroke-width="1.51"/><path d="M1618,-585L1015,-616L1229,-356Z" fill="#f3d8d5" stroke="#f3d8d5" stroke-width="1.51"/><path d="M1639,4394L2032,4427L1699,3944Z" fill="#db7d79" stroke="#db7d79" stroke-width="1.51"/><path d="M-367,3521L-198,3747L-22,3208Z" fill="#eeb2ad" stroke="#eeb2ad" stroke-width="1.51"/><path d="M408,-603L-14,-170L361,-230Z" fill="#f8e8e6" stroke="#f8e8e6" stroke-width="1.51"/><path d="M361,-230L-14,-170L342,60Z" fill="#f7e6e3" stroke="#f7e6e3" stroke-width="1.51"/><path d="M1036,4223L1109,4454L1476,4119Z" fill="#df8a84" stroke="#df8a84" stroke-width="1.51"/><path d="M1639,4394L1109,4454L2032,4427Z" fill="#dc7e7a" stroke="#dc7e7a" stroke-width="1.51"/><path d="M630,4363L1109,4454L1036,4223Z" fill="#e18d89" stroke="#e18d89" stroke-width="1.51"/><path d="M630,4363L848,4043L443,4026Z" fill="#e59692" stroke="#e59692" stroke-width="1.51"/><path d="M1015,-616L871,-641L750,-191Z" fill="#f5dfdc" stroke="#f5dfdc" stroke-width="1.51"/><path d="M1618,-585L871,-641L1015,-616Z" fill="#f4dbd9" stroke="#f4dbd9" stroke-width="1.51"/><path d="M2717,4374L3022,4122L2679,4058Z" fill="#d56563" stroke="#d56563" stroke-width="1.51"/><path d="M3237,3654L3594,4429L3486,3261Z" fill="#d35c5c" stroke="#d35c5c" stroke-width="1.51"/><path d="M2717,4374L2679,4058L2447,4238Z" fill="#d66867" stroke="#d66867" stroke-width="1.51"/><path d="M2819,-531L2360,-662L2706,-346Z" fill="#f0b8b4" stroke="#f0b8b4" stroke-width="1.51"/><path d="M2706,-346L2360,-662L2121,-215Z" fill="#f0bcb8" stroke="#f0bcb8" stroke-width="1.51"/><path d="M1977,-529L2360,-662L1618,-585Z" fill="#f2cac5" stroke="#f2cac5" stroke-width="1.51"/><path d="M1618,-585L2360,-662L871,-641Z" fill="#f2d3cf" stroke="#f2d3cf" stroke-width="1.51"/><path d="M197,4533L630,4363L443,4026Z" fill="#e69792" stroke="#e69792" stroke-width="1.51"/><path d="M3022,4122L3240,3991L3237,3654Z" fill="#d46160" stroke="#d46160" stroke-width="1.51"/><path d="M3051,-53L2848,-505L2706,-346Z" fill="#eeb0ab" stroke="#eeb0ab" stroke-width="1.51"/><path d="M3149,92L3519,-270L3051,-53Z" fill="#eba49f" stroke="#eba49f" stroke-width="1.51"/><path d="M3569,829L3539,17L3397,735Z" fill="#e69490" stroke="#e69490" stroke-width="1.51"/><path d="M3332,-431L2848,-505L3051,-53Z" fill="#eeaba7" stroke="#eeaba7" stroke-width="1.51"/><path d="M3332,-431L2819,-531L2848,-505Z" fill="#efafab" stroke="#efafab" stroke-width="1.51"/><path d="M2848,-505L2819,-531L2706,-346Z" fill="#efb4b0" stroke="#efb4b0" stroke-width="1.51"/><path d="M3022,4122L3186,4235L3240,3991Z" fill="#d35d5d" stroke="#d35d5d" stroke-width="1.51"/><path d="M2032,4427L2717,4374L2447,4238Z" fill="#d76b6a" stroke="#d76b6a" stroke-width="1.51"/><path d="M-198,3747L-93,4057L231,3513Z" fill="#eca9a5" stroke="#eca9a5" stroke-width="1.51"/><path d="M-234,4048L-93,4057L-198,3747Z" fill="#eca9a4" stroke="#eca9a4" stroke-width="1.51"/><path d="M871,-641L408,-603L750,-191Z" fill="#f7e2e0" stroke="#f7e2e0" stroke-width="1.51"/><path d="M-367,3521L-234,4048L-198,3747Z" fill="#eeaea9" stroke="#eeaea9" stroke-width="1.51"/><path d="M-93,4057L197,4533L443,4026Z" fill="#e99d99" stroke="#e99d99" stroke-width="1.51"/><path d="M2717,4374L3186,4235L3022,4122Z" fill="#d45f5e" stroke="#d45f5e" stroke-width="1.51"/><path d="M3240,3991L3594,4429L3237,3654Z" fill="#d2595a" stroke="#d2595a" stroke-width="1.51"/><path d="M-14,-170L-310,-237L-376,358Z" fill="#faedeb" stroke="#faedeb" stroke-width="1.51"/><path d="M-376,358L-482,-561L-452,682Z" fill="#faeeec" stroke="#faeeec" stroke-width="1.51"/><path d="M-165,-665L-310,-237L-14,-170Z" fill="#fbf0ef" stroke="#fbf0ef" stroke-width="1.51"/><path d="M3539,17L3519,-270L3149,92Z" fill="#eb9f9b" stroke="#eb9f9b" stroke-width="1.51"/><path d="M3519,-270L3332,-431L3051,-53Z" fill="#eca4a0" stroke="#eca4a0" stroke-width="1.51"/><path d="M2819,-531L3332,-431L2360,-662Z" fill="#f0b4b0" stroke="#f0b4b0" stroke-width="1.51"/><path d="M630,4363L197,4533L1109,4454Z" fill="#e4908c" stroke="#e4908c" stroke-width="1.51"/><path d="M1109,4454L197,4533L2032,4427Z" fill="#e08783" stroke="#e08783" stroke-width="1.51"/><path d="M-156,4512L197,4533L-93,4057Z" fill="#ea9e9a" stroke="#ea9e9a" stroke-width="1.51"/><path d="M2360,-662L-165,-665L871,-641Z" fill="#f5dfdc" stroke="#f5dfdc" stroke-width="1.51"/><path d="M871,-641L-165,-665L408,-603Z" fill="#f9eae9" stroke="#f9eae9" stroke-width="1.51"/><path d="M408,-603L-165,-665L-14,-170Z" fill="#faedec" stroke="#faedec" stroke-width="1.51"/><path d="M-234,4048L-156,4512L-93,4057Z" fill="#eca49f" stroke="#eca49f" stroke-width="1.51"/><path d="M-528,4463L-156,4512L-234,4048Z" fill="#eda49f" stroke="#eda49f" stroke-width="1.51"/><path d="M-165,-665L-482,-561L-310,-237Z" fill="#fdf5f4" stroke="#fdf5f4" stroke-width="1.51"/><path d="M-310,-237L-482,-561L-376,358Z" fill="#fcf2f0" stroke="#fcf2f0" stroke-width="1.51"/><path d="M-452,682L-482,-561L-532,2318Z" fill="#f7e5e3" stroke="#f7e5e3" stroke-width="1.51"/><path d="M2717,4374L3594,4429L3186,4235Z" fill="#d15759" stroke="#d15759" stroke-width="1.51"/><path d="M3186,4235L3594,4429L3240,3991Z" fill="#d15557" stroke="#d15557" stroke-width="1.51"/><path d="M3486,3261L3594,4429L3521,2968Z" fill="#d35e5e" stroke="#d35e5e" stroke-width="1.51"/><path d="M3521,2968L3594,4429L3549,2502Z" fill="#d56362" stroke="#d56362" stroke-width="1.51"/><path d="M3549,2502L3594,4429L3569,829Z" fill="#d9726f" stroke="#d9726f" stroke-width="1.51"/><path d="M2032,4427L3594,4429L2717,4374Z" fill="#d46060" stroke="#d46060" stroke-width="1.51"/><path d="M197,4533L3594,4429L2032,4427Z" fill="#d97572" stroke="#d97572" stroke-width="1.51"/><path d="M-367,3521L-528,4463L-234,4048Z" fill="#eeaba7" stroke="#eeaba7" stroke-width="1.51"/><path d="M-489,2869L-528,4463L-367,3521Z" fill="#f0b4b0" stroke="#f0b4b0" stroke-width="1.51"/><path d="M-532,2318L-528,4463L-489,2869Z" fill="#f1bdb9" stroke="#f1bdb9" stroke-width="1.51"/></svg>